<svg width="271" height="271" viewBox="0 0 271 271" fill="none" xmlns="http://www.w3.org/2000/svg">
<g clip-path="url(#clip0_84_6)">
<path d="M258.043 103.234H271V167.766H258.043V103.234ZM245.17 167.766H258.043V193.596H245.17V167.766ZM245.17 77.4043H258.043V103.234H245.17V77.4043ZM232.298 193.596H245.17V219.341H232.298V193.596ZM232.298 51.6593H245.17V77.4043H232.298V51.6593ZM219.341 219.341H232.298V232.298H219.341V219.341ZM219.341 38.7021H232.298V51.6593H219.341V38.7021ZM193.511 232.298H219.341V245.17H193.511V232.298ZM193.511 25.8296H219.341V38.7021H193.511V25.8296ZM180.639 180.638H193.511V193.596H180.639V180.638ZM77.4045 129.064H90.277V116.106H180.639V129.064H193.511V180.638H206.468V77.4043H193.511V64.5318H180.639V51.6593H90.277V64.5318H77.4045V77.4043H64.532V180.638H77.4045V129.064ZM167.766 245.17H193.511V258.127H167.766V245.17ZM167.766 193.596H180.639V206.468H167.766V193.596Z" fill="url(#paint0_linear_84_6)"/>
<path d="M167.766 141.936H180.638V167.766H167.766V141.936ZM167.766 12.8725H193.511V25.8297H167.766V12.8725ZM103.234 258.127H167.766V271H103.234V258.127ZM103.234 206.468H167.766V219.341H103.234V206.468ZM116.107 180.638H154.809V193.596H116.107V180.638ZM103.234 0H167.766V12.8725H103.234V0ZM77.4044 245.17H103.234V258.127H77.4044V245.17ZM90.2769 193.596H103.234V206.468H90.2769V193.596ZM90.2769 141.936H103.234V167.766H90.2769V141.936ZM77.4044 12.8725H103.234V25.8297H77.4044V12.8725ZM77.4044 180.638H90.2769V193.596H77.4044V180.638ZM51.5747 232.298H77.4044V245.17H51.5747V232.298ZM51.5747 25.8297H77.4044V38.7022H51.5747V25.8297ZM38.7022 219.341H51.5747V232.298H38.7022V219.341ZM38.7022 38.7022H51.5747V51.6594H38.7022V38.7022ZM25.8297 193.596H38.7022V219.341H25.8297V193.596ZM25.8297 51.6594H38.7022V77.4044H25.8297V51.6594ZM12.8725 167.766H25.8297V193.596H12.8725V167.766ZM12.8725 77.4044H25.8297V103.234H12.8725V77.4044ZM0 103.234H12.8725V167.766H0V103.234Z" fill="url(#paint1_linear_84_6)"/>
</g>
<defs>
<linearGradient id="paint0_linear_84_6" x1="150" y1="142" x2="306" y2="164.5" gradientUnits="userSpaceOnUse">
<stop stop-color="#A7A0F2"/>
<stop offset="1" stop-color="#312D5A"/>
</linearGradient>
<linearGradient id="paint1_linear_84_6" x1="142" y1="122.5" x2="-50" y2="125.5" gradientUnits="userSpaceOnUse">
<stop stop-color="#A49DEB"/>
<stop offset="1" stop-color="#5750A4"/>
</linearGradient>
<clipPath id="clip0_84_6">
<rect width="271" height="271" fill="white"/>
</clipPath>
</defs>
</svg>
